<mxfile host="app.diagrams.net" modified="2024-08-01T15:58:26.624Z" agent="Mozilla/5.0 (X11; Ubuntu; Linux x86_64; rv:128.0) Gecko/20100101 Firefox/128.0" etag="QC-_PnY3EkzJ3PvIrWR1" version="24.6.3" type="device">
  <diagram name="Seite-1" id="2-wBpT7mCzbCMWG4dMQq">
    <mxGraphModel dx="1637" dy="1306" grid="1" gridSize="10" guides="1" tooltips="1" connect="1" arrows="1" fold="1" page="1" pageScale="1" pageWidth="1169" pageHeight="1654" math="0" shadow="0">
      <root>
        <mxCell id="0" />
        <mxCell id="1" parent="0" />
        <mxCell id="qY6olwv1gNWJPyVqWQlO-2" value="&lt;div&gt;&amp;lt;Data Source&amp;gt;&lt;/div&gt;&lt;div&gt;arXiv / OpenAlex / bioRxiv&lt;br&gt;&lt;/div&gt;" style="verticalLabelPosition=bottom;aspect=fixed;html=1;shape=mxgraph.salesforce.data;" vertex="1" parent="1">
          <mxGeometry x="60" y="331" width="48.6" height="60" as="geometry" />
        </mxCell>
        <mxCell id="qY6olwv1gNWJPyVqWQlO-3" value="&lt;div&gt;&amp;lt;Sub-domain&amp;gt;&lt;/div&gt;&lt;div&gt;Select a subdomain, e.g.&lt;/div&gt;&lt;div&gt;&quot;Computation &amp;amp; Language&quot;,&lt;/div&gt;&lt;div&gt;&quot;Gravitational Waves&quot;,&lt;/div&gt;&lt;div&gt;&quot;CRISPR&quot;, etc.&lt;/div&gt;" style="verticalLabelPosition=bottom;aspect=fixed;html=1;shape=mxgraph.salesforce.data2;spacingTop=29;" vertex="1" parent="1">
          <mxGeometry x="250" y="330" width="60" height="60" as="geometry" />
        </mxCell>
        <mxCell id="qY6olwv1gNWJPyVqWQlO-6" style="edgeStyle=orthogonalEdgeStyle;rounded=0;orthogonalLoop=1;jettySize=auto;html=1;entryX=-0.035;entryY=0.517;entryDx=0;entryDy=0;entryPerimeter=0;curved=1;strokeWidth=3;fillColor=#ffe6cc;strokeColor=#d79b00;" edge="1" parent="1" source="qY6olwv1gNWJPyVqWQlO-2" target="qY6olwv1gNWJPyVqWQlO-3">
          <mxGeometry relative="1" as="geometry" />
        </mxCell>
        <mxCell id="qY6olwv1gNWJPyVqWQlO-16" style="edgeStyle=orthogonalEdgeStyle;rounded=0;orthogonalLoop=1;jettySize=auto;html=1;entryX=0.5;entryY=0;entryDx=0;entryDy=0;curved=1;strokeWidth=3;fillColor=#ffe6cc;strokeColor=#d79b00;" edge="1" parent="1" source="qY6olwv1gNWJPyVqWQlO-33" target="qY6olwv1gNWJPyVqWQlO-32">
          <mxGeometry relative="1" as="geometry">
            <mxPoint x="549.8868280414965" y="190" as="sourcePoint" />
          </mxGeometry>
        </mxCell>
        <mxCell id="qY6olwv1gNWJPyVqWQlO-21" value="&lt;div&gt;&amp;lt;LLM&amp;gt;&lt;/div&gt;&lt;div&gt;Labelling&lt;br&gt;&lt;/div&gt;" style="verticalLabelPosition=bottom;aspect=fixed;html=1;shape=mxgraph.salesforce.bots2;spacingTop=-10;" vertex="1" parent="1">
          <mxGeometry x="770" y="248" width="60" height="60" as="geometry" />
        </mxCell>
        <mxCell id="qY6olwv1gNWJPyVqWQlO-22" value="&lt;div&gt;&amp;lt;LLM&amp;gt;&lt;/div&gt;&lt;div&gt;Labelling&lt;br&gt;&lt;/div&gt;" style="verticalLabelPosition=bottom;aspect=fixed;html=1;shape=mxgraph.salesforce.bots2;spacingTop=-10;" vertex="1" parent="1">
          <mxGeometry x="770" y="405" width="60" height="60" as="geometry" />
        </mxCell>
        <mxCell id="qY6olwv1gNWJPyVqWQlO-23" value="&lt;div&gt;&amp;lt;LLM&amp;gt;&lt;/div&gt;&lt;div&gt;Mapping&lt;br&gt;&lt;/div&gt;" style="verticalLabelPosition=bottom;aspect=fixed;html=1;shape=mxgraph.salesforce.bots2;spacingTop=-10;" vertex="1" parent="1">
          <mxGeometry x="770" y="565" width="60" height="60" as="geometry" />
        </mxCell>
        <mxCell id="qY6olwv1gNWJPyVqWQlO-24" style="edgeStyle=orthogonalEdgeStyle;rounded=0;orthogonalLoop=1;jettySize=auto;html=1;entryX=-0.001;entryY=0.533;entryDx=0;entryDy=0;entryPerimeter=0;curved=1;strokeWidth=3;fillColor=#ffe6cc;strokeColor=#d79b00;" edge="1" parent="1" source="qY6olwv1gNWJPyVqWQlO-3" target="qY6olwv1gNWJPyVqWQlO-33">
          <mxGeometry relative="1" as="geometry">
            <mxPoint x="491.0097767997486" y="194.01999999999998" as="targetPoint" />
          </mxGeometry>
        </mxCell>
        <mxCell id="qY6olwv1gNWJPyVqWQlO-25" style="edgeStyle=orthogonalEdgeStyle;rounded=0;orthogonalLoop=1;jettySize=auto;html=1;strokeWidth=3;fillColor=#ffe6cc;strokeColor=#d79b00;" edge="1" parent="1" source="qY6olwv1gNWJPyVqWQlO-3" target="qY6olwv1gNWJPyVqWQlO-34">
          <mxGeometry relative="1" as="geometry">
            <mxPoint x="450" y="360" as="targetPoint" />
          </mxGeometry>
        </mxCell>
        <mxCell id="qY6olwv1gNWJPyVqWQlO-27" style="edgeStyle=orthogonalEdgeStyle;rounded=0;orthogonalLoop=1;jettySize=auto;html=1;entryX=0.034;entryY=0.509;entryDx=0;entryDy=0;entryPerimeter=0;curved=1;strokeWidth=3;fillColor=#ffe6cc;strokeColor=#d79b00;" edge="1" parent="1" source="qY6olwv1gNWJPyVqWQlO-23" target="qY6olwv1gNWJPyVqWQlO-40">
          <mxGeometry relative="1" as="geometry">
            <mxPoint x="848.9800000000002" y="596.0152738705942" as="targetPoint" />
          </mxGeometry>
        </mxCell>
        <mxCell id="qY6olwv1gNWJPyVqWQlO-28" style="edgeStyle=orthogonalEdgeStyle;rounded=0;orthogonalLoop=1;jettySize=auto;html=1;entryX=0;entryY=0.567;entryDx=0;entryDy=0;entryPerimeter=0;curved=1;strokeWidth=3;fillColor=#ffe6cc;strokeColor=#d79b00;" edge="1" parent="1" source="qY6olwv1gNWJPyVqWQlO-36" target="qY6olwv1gNWJPyVqWQlO-22">
          <mxGeometry relative="1" as="geometry">
            <mxPoint x="549.8868280414965" y="520" as="sourcePoint" />
          </mxGeometry>
        </mxCell>
        <mxCell id="qY6olwv1gNWJPyVqWQlO-29" style="edgeStyle=orthogonalEdgeStyle;rounded=0;orthogonalLoop=1;jettySize=auto;html=1;entryX=0.006;entryY=0.509;entryDx=0;entryDy=0;entryPerimeter=0;curved=1;strokeWidth=3;fillColor=#ffe6cc;strokeColor=#d79b00;" edge="1" parent="1" source="qY6olwv1gNWJPyVqWQlO-22" target="qY6olwv1gNWJPyVqWQlO-41">
          <mxGeometry relative="1" as="geometry">
            <mxPoint x="850" y="429.9708257488003" as="targetPoint" />
          </mxGeometry>
        </mxCell>
        <mxCell id="qY6olwv1gNWJPyVqWQlO-32" value="&lt;div align=&quot;left&quot;&gt;&lt;span style=&quot;background-color: rgb(255, 255, 255);&quot;&gt;choose&amp;nbsp;&lt;/span&gt;&lt;/div&gt;&lt;div align=&quot;left&quot;&gt;&lt;span style=&quot;background-color: rgb(255, 255, 255);&quot;&gt;best model&lt;/span&gt;&lt;/div&gt;" style="rhombus;html=1;strokeWidth=2;spacingRight=0;align=left;spacingLeft=-63;" vertex="1" parent="1">
          <mxGeometry x="660" y="260" width="40" height="40" as="geometry" />
        </mxCell>
        <mxCell id="qY6olwv1gNWJPyVqWQlO-33" value="&lt;div&gt;&amp;lt;Model&amp;gt;&lt;/div&gt;&lt;div&gt;LDA &quot;Soft&quot; clustering&lt;br&gt;&lt;/div&gt;" style="verticalLabelPosition=bottom;aspect=fixed;html=1;shape=mxgraph.salesforce.analytics2;" vertex="1" parent="1">
          <mxGeometry x="480" y="168" width="60" height="60" as="geometry" />
        </mxCell>
        <mxCell id="qY6olwv1gNWJPyVqWQlO-44" style="edgeStyle=orthogonalEdgeStyle;rounded=0;orthogonalLoop=1;jettySize=auto;html=1;entryX=0.5;entryY=1;entryDx=0;entryDy=0;curved=1;strokeWidth=3;fillColor=#ffe6cc;strokeColor=#d79b00;" edge="1" parent="1" source="qY6olwv1gNWJPyVqWQlO-34" target="qY6olwv1gNWJPyVqWQlO-32">
          <mxGeometry relative="1" as="geometry" />
        </mxCell>
        <mxCell id="qY6olwv1gNWJPyVqWQlO-34" value="&lt;div&gt;&amp;lt;Model&amp;gt;&lt;/div&gt;&lt;div&gt;Ensemble LDA&amp;nbsp;&lt;/div&gt;&lt;div&gt;&quot;Soft&quot; clustering&lt;br&gt;&lt;/div&gt;" style="verticalLabelPosition=bottom;aspect=fixed;html=1;shape=mxgraph.salesforce.analytics2;" vertex="1" parent="1">
          <mxGeometry x="480" y="330" width="60" height="60" as="geometry" />
        </mxCell>
        <mxCell id="qY6olwv1gNWJPyVqWQlO-36" value="&lt;div&gt;&amp;lt;Model&amp;gt;&lt;/div&gt;&lt;div&gt;HDP &quot;Hard&quot; clustering&lt;br&gt;&lt;/div&gt;" style="verticalLabelPosition=bottom;aspect=fixed;html=1;shape=mxgraph.salesforce.analytics2;fillColor=none;strokeColor=#CC00CC;" vertex="1" parent="1">
          <mxGeometry x="480" y="495" width="60" height="60" as="geometry" />
        </mxCell>
        <mxCell id="qY6olwv1gNWJPyVqWQlO-37" style="edgeStyle=orthogonalEdgeStyle;rounded=0;orthogonalLoop=1;jettySize=auto;html=1;entryX=-0.001;entryY=0.5;entryDx=0;entryDy=0;entryPerimeter=0;curved=1;strokeWidth=3;fillColor=#ffe6cc;strokeColor=#d79b00;" edge="1" parent="1" source="qY6olwv1gNWJPyVqWQlO-3" target="qY6olwv1gNWJPyVqWQlO-36">
          <mxGeometry relative="1" as="geometry" />
        </mxCell>
        <mxCell id="qY6olwv1gNWJPyVqWQlO-39" style="edgeStyle=orthogonalEdgeStyle;rounded=0;orthogonalLoop=1;jettySize=auto;html=1;entryX=0.014;entryY=0.486;entryDx=0;entryDy=0;entryPerimeter=0;curved=1;fillColor=#ffe6cc;strokeColor=#d79b00;strokeWidth=3;" edge="1" parent="1" source="qY6olwv1gNWJPyVqWQlO-36" target="qY6olwv1gNWJPyVqWQlO-23">
          <mxGeometry relative="1" as="geometry" />
        </mxCell>
        <mxCell id="qY6olwv1gNWJPyVqWQlO-40" value="&lt;div&gt;&amp;lt;Graph&amp;gt;&lt;/div&gt;&lt;div&gt;Ontology of the domain&amp;nbsp;&lt;/div&gt;&lt;div&gt;according to existing&amp;nbsp;&lt;/div&gt;&lt;div&gt;library systematic&lt;/div&gt;" style="verticalLabelPosition=bottom;aspect=fixed;html=1;shape=mxgraph.salesforce.stream;spacingTop=10;" vertex="1" parent="1">
          <mxGeometry x="930" y="565" width="60" height="60" as="geometry" />
        </mxCell>
        <mxCell id="qY6olwv1gNWJPyVqWQlO-41" value="&lt;div&gt;&amp;lt;Graph&amp;gt;&lt;/div&gt;&lt;div&gt;Topic Hierarchy&amp;nbsp;&lt;/div&gt;&lt;div&gt;(dendrogram)&lt;/div&gt;" style="verticalLabelPosition=bottom;aspect=fixed;html=1;shape=mxgraph.salesforce.stream;" vertex="1" parent="1">
          <mxGeometry x="930" y="405" width="60" height="60" as="geometry" />
        </mxCell>
        <mxCell id="qY6olwv1gNWJPyVqWQlO-42" value="&lt;div&gt;&amp;lt;Graph&amp;gt;&lt;/div&gt;Topic Network Graph" style="verticalLabelPosition=bottom;aspect=fixed;html=1;shape=mxgraph.salesforce.stream;" vertex="1" parent="1">
          <mxGeometry x="930" y="248" width="60" height="60" as="geometry" />
        </mxCell>
        <mxCell id="qY6olwv1gNWJPyVqWQlO-45" style="edgeStyle=orthogonalEdgeStyle;rounded=0;orthogonalLoop=1;jettySize=auto;html=1;entryX=0.017;entryY=0.534;entryDx=0;entryDy=0;entryPerimeter=0;strokeWidth=3;fillColor=#ffe6cc;strokeColor=#d79b00;" edge="1" parent="1" source="qY6olwv1gNWJPyVqWQlO-32" target="qY6olwv1gNWJPyVqWQlO-21">
          <mxGeometry relative="1" as="geometry" />
        </mxCell>
        <mxCell id="qY6olwv1gNWJPyVqWQlO-46" style="edgeStyle=orthogonalEdgeStyle;rounded=0;orthogonalLoop=1;jettySize=auto;html=1;entryX=-0.046;entryY=0.506;entryDx=0;entryDy=0;entryPerimeter=0;strokeWidth=3;fillColor=#ffe6cc;strokeColor=#d79b00;" edge="1" parent="1" source="qY6olwv1gNWJPyVqWQlO-21" target="qY6olwv1gNWJPyVqWQlO-42">
          <mxGeometry relative="1" as="geometry" />
        </mxCell>
        <mxCell id="qY6olwv1gNWJPyVqWQlO-50" style="edgeStyle=orthogonalEdgeStyle;rounded=0;orthogonalLoop=1;jettySize=auto;html=1;startArrow=none;endArrow=diamond;segment=10;curved=1;sourcePerimeterSpacing=0;targetPerimeterSpacing=0;entryX=1;entryY=0.5;entryDx=0;entryDy=0;strokeWidth=2;fillColor=#dae8fc;strokeColor=#6c8ebf;startFill=0;endFill=0;" edge="1" parent="1" source="qY6olwv1gNWJPyVqWQlO-47" target="qY6olwv1gNWJPyVqWQlO-48">
          <mxGeometry relative="1" as="geometry" />
        </mxCell>
        <mxCell id="qY6olwv1gNWJPyVqWQlO-56" style="edgeStyle=orthogonalEdgeStyle;rounded=0;orthogonalLoop=1;jettySize=auto;html=1;startArrow=none;endArrow=diamond;segment=10;curved=1;sourcePerimeterSpacing=0;targetPerimeterSpacing=0;entryX=0;entryY=0.5;entryDx=0;entryDy=0;endFill=0;strokeWidth=2;fillColor=#dae8fc;strokeColor=#6c8ebf;" edge="1" parent="1" source="qY6olwv1gNWJPyVqWQlO-47" target="qY6olwv1gNWJPyVqWQlO-55">
          <mxGeometry relative="1" as="geometry" />
        </mxCell>
        <mxCell id="qY6olwv1gNWJPyVqWQlO-71" style="edgeStyle=orthogonalEdgeStyle;rounded=0;orthogonalLoop=1;jettySize=auto;html=1;startArrow=none;endArrow=diamond;segment=10;curved=1;sourcePerimeterSpacing=0;targetPerimeterSpacing=0;entryX=1;entryY=0.5;entryDx=0;entryDy=0;endFill=0;strokeWidth=2;fillColor=#dae8fc;strokeColor=#6c8ebf;" edge="1" parent="1" source="qY6olwv1gNWJPyVqWQlO-47" target="qY6olwv1gNWJPyVqWQlO-70">
          <mxGeometry relative="1" as="geometry" />
        </mxCell>
        <mxCell id="qY6olwv1gNWJPyVqWQlO-47" value="&lt;div&gt;Computational&amp;nbsp;&lt;/div&gt;&lt;div&gt;literature review&lt;/div&gt;&lt;div&gt;(CLR)&lt;br&gt;&lt;/div&gt;" style="ellipse;whiteSpace=wrap;html=1;align=center;newEdgeStyle={&quot;edgeStyle&quot;:&quot;entityRelationEdgeStyle&quot;,&quot;startArrow&quot;:&quot;none&quot;,&quot;endArrow&quot;:&quot;none&quot;,&quot;segment&quot;:10,&quot;curved&quot;:1,&quot;sourcePerimeterSpacing&quot;:0,&quot;targetPerimeterSpacing&quot;:0};treeFolding=1;treeMoving=1;fillColor=#f5f5f5;strokeColor=#666666;fontStyle=1;fontColor=#333333;" vertex="1" parent="1">
          <mxGeometry x="500" y="1080" width="130" height="70" as="geometry" />
        </mxCell>
        <mxCell id="qY6olwv1gNWJPyVqWQlO-52" style="edgeStyle=orthogonalEdgeStyle;rounded=0;orthogonalLoop=1;jettySize=auto;html=1;startArrow=none;endArrow=diamond;segment=10;curved=1;sourcePerimeterSpacing=0;targetPerimeterSpacing=0;entryX=0.5;entryY=1;entryDx=0;entryDy=0;strokeWidth=2;fillColor=#dae8fc;strokeColor=#6c8ebf;startFill=0;endFill=0;" edge="1" parent="1" source="qY6olwv1gNWJPyVqWQlO-48" target="qY6olwv1gNWJPyVqWQlO-51">
          <mxGeometry relative="1" as="geometry" />
        </mxCell>
        <mxCell id="qY6olwv1gNWJPyVqWQlO-48" value="Explicating" style="ellipse;whiteSpace=wrap;html=1;align=center;newEdgeStyle={&quot;edgeStyle&quot;:&quot;entityRelationEdgeStyle&quot;,&quot;startArrow&quot;:&quot;none&quot;,&quot;endArrow&quot;:&quot;none&quot;,&quot;segment&quot;:10,&quot;curved&quot;:1,&quot;sourcePerimeterSpacing&quot;:0,&quot;targetPerimeterSpacing&quot;:0};treeFolding=1;treeMoving=1;fillColor=#bac8d3;strokeColor=#23445d;fontStyle=1;" vertex="1" parent="1">
          <mxGeometry x="290" y="987" width="130" height="70" as="geometry" />
        </mxCell>
        <mxCell id="qY6olwv1gNWJPyVqWQlO-51" value="Summarising" style="ellipse;whiteSpace=wrap;html=1;align=center;newEdgeStyle={&quot;edgeStyle&quot;:&quot;entityRelationEdgeStyle&quot;,&quot;startArrow&quot;:&quot;none&quot;,&quot;endArrow&quot;:&quot;none&quot;,&quot;segment&quot;:10,&quot;curved&quot;:1,&quot;sourcePerimeterSpacing&quot;:0,&quot;targetPerimeterSpacing&quot;:0};treeFolding=1;treeMoving=1;fillColor=#647687;strokeColor=#314354;fontStyle=1;fontColor=#ffffff;" vertex="1" parent="1">
          <mxGeometry x="170" y="860" width="130" height="70" as="geometry" />
        </mxCell>
        <mxCell id="qY6olwv1gNWJPyVqWQlO-54" style="edgeStyle=orthogonalEdgeStyle;rounded=0;orthogonalLoop=1;jettySize=auto;html=1;entryX=0.5;entryY=0;entryDx=0;entryDy=0;curved=1;fillColor=#ffe6cc;strokeColor=#d79b00;strokeWidth=3;" edge="1" parent="1" source="qY6olwv1gNWJPyVqWQlO-53" target="qY6olwv1gNWJPyVqWQlO-51">
          <mxGeometry relative="1" as="geometry" />
        </mxCell>
        <mxCell id="qY6olwv1gNWJPyVqWQlO-53" value="&lt;div&gt;&amp;lt;Graph&amp;gt;&lt;/div&gt;&lt;div&gt;Ontology of the domain&amp;nbsp;&lt;/div&gt;&lt;div&gt;according to existing&amp;nbsp;&lt;/div&gt;&lt;div&gt;library systematic&lt;/div&gt;" style="verticalLabelPosition=bottom;aspect=fixed;html=1;shape=mxgraph.salesforce.stream;spacingTop=10;" vertex="1" parent="1">
          <mxGeometry x="48.60000000000002" y="750" width="60" height="60" as="geometry" />
        </mxCell>
        <mxCell id="qY6olwv1gNWJPyVqWQlO-58" style="edgeStyle=orthogonalEdgeStyle;rounded=0;orthogonalLoop=1;jettySize=auto;html=1;startArrow=none;endArrow=diamond;segment=10;curved=1;sourcePerimeterSpacing=0;targetPerimeterSpacing=0;entryX=0.5;entryY=1;entryDx=0;entryDy=0;strokeWidth=2;fillColor=#dae8fc;strokeColor=#6c8ebf;endFill=0;exitX=0.5;exitY=0;exitDx=0;exitDy=0;" edge="1" parent="1" source="qY6olwv1gNWJPyVqWQlO-55" target="qY6olwv1gNWJPyVqWQlO-57">
          <mxGeometry relative="1" as="geometry" />
        </mxCell>
        <mxCell id="qY6olwv1gNWJPyVqWQlO-55" value="Envisioning" style="ellipse;whiteSpace=wrap;html=1;align=center;newEdgeStyle={&quot;edgeStyle&quot;:&quot;entityRelationEdgeStyle&quot;,&quot;startArrow&quot;:&quot;none&quot;,&quot;endArrow&quot;:&quot;none&quot;,&quot;segment&quot;:10,&quot;curved&quot;:1,&quot;sourcePerimeterSpacing&quot;:0,&quot;targetPerimeterSpacing&quot;:0};treeFolding=1;treeMoving=1;fillColor=#bac8d3;strokeColor=#23445d;fontStyle=1;" vertex="1" parent="1">
          <mxGeometry x="720" y="977" width="130" height="70" as="geometry" />
        </mxCell>
        <mxCell id="qY6olwv1gNWJPyVqWQlO-57" value="&lt;div&gt;Identifying&lt;/div&gt;&lt;div&gt;&quot;hot&quot; or &quot;cold&quot;&amp;nbsp;&lt;/div&gt;&lt;div&gt;topics&lt;br&gt;&lt;/div&gt;" style="ellipse;whiteSpace=wrap;html=1;align=center;newEdgeStyle={&quot;edgeStyle&quot;:&quot;entityRelationEdgeStyle&quot;,&quot;startArrow&quot;:&quot;none&quot;,&quot;endArrow&quot;:&quot;none&quot;,&quot;segment&quot;:10,&quot;curved&quot;:1,&quot;sourcePerimeterSpacing&quot;:0,&quot;targetPerimeterSpacing&quot;:0};treeFolding=1;treeMoving=1;fillColor=#647687;strokeColor=#314354;fontStyle=1;fontColor=#ffffff;" vertex="1" parent="1">
          <mxGeometry x="835" y="850" width="130" height="70" as="geometry" />
        </mxCell>
        <mxCell id="qY6olwv1gNWJPyVqWQlO-60" style="edgeStyle=orthogonalEdgeStyle;rounded=0;orthogonalLoop=1;jettySize=auto;html=1;entryX=0.5;entryY=0;entryDx=0;entryDy=0;curved=1;fillColor=#ffe6cc;strokeColor=#d79b00;strokeWidth=3;" edge="1" parent="1" source="qY6olwv1gNWJPyVqWQlO-59" target="qY6olwv1gNWJPyVqWQlO-57">
          <mxGeometry relative="1" as="geometry" />
        </mxCell>
        <mxCell id="qY6olwv1gNWJPyVqWQlO-59" value="&lt;div&gt;&amp;lt;Graph&amp;gt;&lt;/div&gt;Topic Network Graph" style="verticalLabelPosition=bottom;aspect=fixed;html=1;shape=mxgraph.salesforce.stream;" vertex="1" parent="1">
          <mxGeometry x="1000" y="757" width="60" height="60" as="geometry" />
        </mxCell>
        <mxCell id="qY6olwv1gNWJPyVqWQlO-64" value="" style="edgeStyle=orthogonalEdgeStyle;rounded=0;orthogonalLoop=1;jettySize=auto;html=1;startArrow=none;endArrow=diamond;segment=10;curved=1;sourcePerimeterSpacing=0;targetPerimeterSpacing=0;exitX=1;exitY=0.5;exitDx=0;exitDy=0;strokeWidth=2;fillColor=#dae8fc;strokeColor=#6c8ebf;endFill=0;" edge="1" parent="1" source="qY6olwv1gNWJPyVqWQlO-61" target="qY6olwv1gNWJPyVqWQlO-63">
          <mxGeometry relative="1" as="geometry" />
        </mxCell>
        <mxCell id="qY6olwv1gNWJPyVqWQlO-66" style="edgeStyle=orthogonalEdgeStyle;rounded=0;orthogonalLoop=1;jettySize=auto;html=1;startArrow=none;endArrow=diamond;segment=10;curved=1;sourcePerimeterSpacing=0;targetPerimeterSpacing=0;entryX=0.5;entryY=0;entryDx=0;entryDy=0;exitX=0;exitY=0.5;exitDx=0;exitDy=0;strokeWidth=2;fillColor=#dae8fc;strokeColor=#6c8ebf;endFill=0;" edge="1" parent="1" source="qY6olwv1gNWJPyVqWQlO-61" target="qY6olwv1gNWJPyVqWQlO-65">
          <mxGeometry relative="1" as="geometry" />
        </mxCell>
        <mxCell id="qY6olwv1gNWJPyVqWQlO-61" value="Relating" style="ellipse;whiteSpace=wrap;html=1;align=center;newEdgeStyle={&quot;edgeStyle&quot;:&quot;entityRelationEdgeStyle&quot;,&quot;startArrow&quot;:&quot;none&quot;,&quot;endArrow&quot;:&quot;none&quot;,&quot;segment&quot;:10,&quot;curved&quot;:1,&quot;sourcePerimeterSpacing&quot;:0,&quot;targetPerimeterSpacing&quot;:0};treeFolding=1;treeMoving=1;fillColor=#bac8d3;strokeColor=#23445d;fontStyle=1;" vertex="1" parent="1">
          <mxGeometry x="720" y="1200" width="130" height="70" as="geometry" />
        </mxCell>
        <mxCell id="qY6olwv1gNWJPyVqWQlO-62" style="edgeStyle=orthogonalEdgeStyle;rounded=0;orthogonalLoop=1;jettySize=auto;html=1;startArrow=none;endArrow=diamond;segment=10;curved=1;sourcePerimeterSpacing=0;targetPerimeterSpacing=0;entryX=0.5;entryY=0;entryDx=0;entryDy=0;strokeWidth=2;fillColor=#dae8fc;strokeColor=#6c8ebf;endFill=0;" edge="1" parent="1" source="qY6olwv1gNWJPyVqWQlO-47" target="qY6olwv1gNWJPyVqWQlO-61">
          <mxGeometry relative="1" as="geometry" />
        </mxCell>
        <mxCell id="qY6olwv1gNWJPyVqWQlO-63" value="Evolution of ideas" style="ellipse;whiteSpace=wrap;html=1;align=center;newEdgeStyle={&quot;edgeStyle&quot;:&quot;entityRelationEdgeStyle&quot;,&quot;startArrow&quot;:&quot;none&quot;,&quot;endArrow&quot;:&quot;none&quot;,&quot;segment&quot;:10,&quot;curved&quot;:1,&quot;sourcePerimeterSpacing&quot;:0,&quot;targetPerimeterSpacing&quot;:0};treeFolding=1;treeMoving=1;fillColor=#647687;strokeColor=#314354;fontStyle=1;fontColor=#ffffff;" vertex="1" parent="1">
          <mxGeometry x="840" y="1340" width="130" height="70" as="geometry" />
        </mxCell>
        <mxCell id="qY6olwv1gNWJPyVqWQlO-65" value="Researcher trajectories" style="ellipse;whiteSpace=wrap;html=1;align=center;newEdgeStyle={&quot;edgeStyle&quot;:&quot;entityRelationEdgeStyle&quot;,&quot;startArrow&quot;:&quot;none&quot;,&quot;endArrow&quot;:&quot;none&quot;,&quot;segment&quot;:10,&quot;curved&quot;:1,&quot;sourcePerimeterSpacing&quot;:0,&quot;targetPerimeterSpacing&quot;:0};treeFolding=1;treeMoving=1;fillColor=#647687;strokeColor=#314354;fontStyle=1;fontColor=#ffffff;strokeWidth=1;" vertex="1" parent="1">
          <mxGeometry x="590" y="1340" width="130" height="70" as="geometry" />
        </mxCell>
        <mxCell id="qY6olwv1gNWJPyVqWQlO-68" style="edgeStyle=orthogonalEdgeStyle;rounded=0;orthogonalLoop=1;jettySize=auto;html=1;entryX=0.5;entryY=1;entryDx=0;entryDy=0;curved=1;strokeWidth=3;fillColor=#ffe6cc;strokeColor=#d79b00;" edge="1" parent="1" source="qY6olwv1gNWJPyVqWQlO-67" target="qY6olwv1gNWJPyVqWQlO-63">
          <mxGeometry relative="1" as="geometry" />
        </mxCell>
        <mxCell id="qY6olwv1gNWJPyVqWQlO-69" style="edgeStyle=orthogonalEdgeStyle;rounded=0;orthogonalLoop=1;jettySize=auto;html=1;entryX=0.5;entryY=1;entryDx=0;entryDy=0;fillColor=#ffe6cc;strokeColor=#d79b00;strokeWidth=3;curved=1;" edge="1" parent="1" source="qY6olwv1gNWJPyVqWQlO-67" target="qY6olwv1gNWJPyVqWQlO-65">
          <mxGeometry relative="1" as="geometry" />
        </mxCell>
        <mxCell id="qY6olwv1gNWJPyVqWQlO-67" value="&lt;div&gt;&amp;lt;Graph&amp;gt;&lt;/div&gt;&lt;div&gt;Topic Hierarchy&amp;nbsp;&lt;/div&gt;&lt;div&gt;(dendrogram)&lt;/div&gt;" style="verticalLabelPosition=bottom;aspect=fixed;html=1;shape=mxgraph.salesforce.stream;" vertex="1" parent="1">
          <mxGeometry x="750" y="1460" width="60" height="60" as="geometry" />
        </mxCell>
        <mxCell id="qY6olwv1gNWJPyVqWQlO-76" style="edgeStyle=orthogonalEdgeStyle;rounded=0;orthogonalLoop=1;jettySize=auto;html=1;startArrow=none;endArrow=diamond;segment=10;curved=1;sourcePerimeterSpacing=0;targetPerimeterSpacing=0;entryX=0.5;entryY=0;entryDx=0;entryDy=0;exitX=0.5;exitY=1;exitDx=0;exitDy=0;strokeWidth=2;fillColor=#dae8fc;strokeColor=#6c8ebf;endFill=0;" edge="1" parent="1" source="qY6olwv1gNWJPyVqWQlO-70" target="qY6olwv1gNWJPyVqWQlO-75">
          <mxGeometry relative="1" as="geometry" />
        </mxCell>
        <mxCell id="qY6olwv1gNWJPyVqWQlO-70" value="Debating" style="ellipse;whiteSpace=wrap;html=1;align=center;newEdgeStyle={&quot;edgeStyle&quot;:&quot;entityRelationEdgeStyle&quot;,&quot;startArrow&quot;:&quot;none&quot;,&quot;endArrow&quot;:&quot;none&quot;,&quot;segment&quot;:10,&quot;curved&quot;:1,&quot;sourcePerimeterSpacing&quot;:0,&quot;targetPerimeterSpacing&quot;:0};treeFolding=1;treeMoving=1;fillColor=#bac8d3;strokeColor=#23445d;fontStyle=1;" vertex="1" parent="1">
          <mxGeometry x="290" y="1207" width="130" height="70" as="geometry" />
        </mxCell>
        <mxCell id="qY6olwv1gNWJPyVqWQlO-77" style="edgeStyle=orthogonalEdgeStyle;rounded=0;orthogonalLoop=1;jettySize=auto;html=1;entryX=0.5;entryY=1;entryDx=0;entryDy=0;curved=1;fillColor=#ffe6cc;strokeColor=#d79b00;strokeWidth=3;" edge="1" parent="1" source="qY6olwv1gNWJPyVqWQlO-74" target="qY6olwv1gNWJPyVqWQlO-75">
          <mxGeometry relative="1" as="geometry" />
        </mxCell>
        <mxCell id="qY6olwv1gNWJPyVqWQlO-74" value="&lt;div&gt;&amp;lt;LLM&amp;gt;&lt;/div&gt;&lt;div&gt;Sentiment analysis&lt;br&gt;&lt;/div&gt;" style="verticalLabelPosition=bottom;aspect=fixed;html=1;shape=mxgraph.salesforce.bots;" vertex="1" parent="1">
          <mxGeometry x="70" y="1448" width="60" height="57" as="geometry" />
        </mxCell>
        <mxCell id="qY6olwv1gNWJPyVqWQlO-75" value="&lt;div&gt;Identifying&amp;nbsp;&lt;/div&gt;&lt;div&gt;good and bad&amp;nbsp;&lt;/div&gt;&lt;div&gt;research ideas&lt;/div&gt;" style="ellipse;whiteSpace=wrap;html=1;align=center;newEdgeStyle={&quot;edgeStyle&quot;:&quot;entityRelationEdgeStyle&quot;,&quot;startArrow&quot;:&quot;none&quot;,&quot;endArrow&quot;:&quot;none&quot;,&quot;segment&quot;:10,&quot;curved&quot;:1,&quot;sourcePerimeterSpacing&quot;:0,&quot;targetPerimeterSpacing&quot;:0};treeFolding=1;treeMoving=1;fillColor=#647687;strokeColor=#314354;fontStyle=1;fontColor=#ffffff;" vertex="1" parent="1">
          <mxGeometry x="190" y="1337" width="130" height="70" as="geometry" />
        </mxCell>
      </root>
    </mxGraphModel>
  </diagram>
</mxfile>
